PathFileType	4	(X/Y/Z)	/Users/itak/Documents/Research/Walk-IL/dataset/trc/00405_00012.trc
DataRate	CameraRate	NumFrames	NumMarkers	Units	OrigDataRate	OrigDataStartFrame	OrigNumFrames
100.000000	100.000000	4	54	mm	100.000000	146	587
Frame#	Time	RPSI			LPSI			L3			STRN			T10			C7			CLAV			RBAK			LBAK			LSHO			LUPA			LAEL			LAOL			LWTS			LWPS			LFRA			LHPS			LHTS			RSHO			RUPA			RAEL			RAOL			RWTS			RWPS			RFRA			RIFD			RHPS			RBHD			LFHD			RFHD			LBHD			LHIP			RHIP			RASI			LASI			LKNE			LTHI			LANK			LTIP			LTOE			LMT1			LMT5			LHEE			RKNE			RTHI			RANK			RTIP			RTOE			RMT1			RMT5			RHEE			LIFD			RHTS			*53			
		X1	Y1	Z1	X2	Y2	Z2	X3	Y3	Z3	X4	Y4	Z4	X5	Y5	Z5	X6	Y6	Z6	X7	Y7	Z7	X8	Y8	Z8	X9	Y9	Z9	X10	Y10	Z10	X11	Y11	Z11	X12	Y12	Z12	X13	Y13	Z13	X14	Y14	Z14	X15	Y15	Z15	X16	Y16	Z16	X17	Y17	Z17	X18	Y18	Z18	X19	Y19	Z19	X20	Y20	Z20	X21	Y21	Z21	X22	Y22	Z22	X23	Y23	Z23	X24	Y24	Z24	X25	Y25	Z25	X26	Y26	Z26	X27	Y27	Z27	X28	Y28	Z28	X29	Y29	Z29	X30	Y30	Z30	X31	Y31	Z31	X32	Y32	Z32	X33	Y33	Z33	X34	Y34	Z34	X35	Y35	Z35	X36	Y36	Z36	X37	Y37	Z37	X38	Y38	Z38	X39	Y39	Z39	X40	Y40	Z40	X41	Y41	Z41	X42	Y42	Z42	X43	Y43	Z43	X44	Y44	Z44	X45	Y45	Z45	X46	Y46	Z46	X47	Y47	Z47	X48	Y48	Z48	X49	Y49	Z49	X50	Y50	Z50	X51	Y51	Z51	X52	Y52	Z52	X53	Y53	Z53	X54	Y54	Z54	

147	1.46	-404.6385803222656	949.1277465820312	892.7542724609375	-502.0366821289062	938.0151977539062	983.0003662109375	-442.3607482910156	1030.445922851562	934.7905883789062	-594.1033935546875	1179.918823242188	738.7120361328125	-429.0557250976562	1134.39013671875	937.2030639648438	-459.7333984375	1381.319580078125	891.30908203125	-557.8896484375	1299.5595703125	774.9066772460938	-377.3750610351562	1236.742919921875	888.443359375	-524.5003051757812	1348.00634765625	972.458740234375	-619.55419921875	1361.586303710938	942.3109130859375	-642.9676513671875	1256.0283203125	1023.880065917969	-659.5725708007812	1065.0068359375	1070.092407226562	-576.899658203125	1045.013671875	1057.474853515625	-688.626953125	831.5918579101562	1023.993469238281	-693.2584228515625	837.898681640625	1107.364013671875	-673.6658935546875	961.5633544921875	1091.353149414062	-692.0635375976562	751.677490234375	1111.380737304688	-707.8135986328125	737.8206787109375	1050.804077148438	-379.1346130371094	1358.010986328125	745.67236328125	-322.1598815917969	1294.160888671875	717.9248657226562	-286.3885192871094	1034.615112304688	674.1963500976562	-338.1476745605469	1015.076171875	753.299560546875	-473.49755859375	941.8251342773438	548.1096801757812	-416.9280700683594	908.14453125	515.3468017578125	-312.8847351074219	992.1881713867188	627.4102172851562	-558.0315551757812	817.705078125	458.9894104003906	-463.3291625976562	846.5648193359375	471.4138793945312	-415.824951171875	1559.131469726562	811.9374389648438	-610.9696044921875	1572.368286132812	777.17529296875	-506.0573120117188	1569.2880859375	713.2432861328125	-544.1150512695312	1559.984741210938	909.89697265625	-644.9869384765625	936.9302978515625	988.0118408203125	-372.6763610839844	925.5230102539062	754.5908813476562	-500.5438842773438	933.2764892578125	686.0498046875	-685.8675537109375	942.3820190429688	873.1544799804688	-795.6156005859375	488.6509094238281	829.4050903320312	-755.3709716796875	609.1354370117188	883.9948120117188	-866.90625	37.8829231262207	759.3833618164062	-842.2824096679688	259.3548278808594	807.9977416992188	-935.6444091796875	130.5063323974609	576.2613525390625	-866.1276245117188	99.02490997314453	608.471435546875	-950.71240234375	77.08002471923828	671.2363891601562	-800.7556762695312	26.91221809387207	752.5755615234375	-442.9850158691406	441.4929504394531	820.12890625	-440.9098205566406	692.673828125	724.6719360351562	-390.6141967773438	56.44380187988281	985.6693115234375	-456.7255554199219	317.2622375488281	861.7075805664062	-577.1262817382812	40.20291137695312	950.1321411132812	-525.8623046875	48.42891693115234	1013.459777832031	-458.1711730957031	47.74626541137695	939.2660522460938	-354.586181640625	56.01334381103516	1070.583129882812	-676.6146240234375	659.598876953125	1069.298706054688	-524.5548095703125	881.349853515625	473.8257751464844	nan	nan	nan	
148	1.47	-412.6909484863281	946.9546508789062	886.9951782226562	-511.0869445800781	935.8525390625	976.1500854492188	-450.7315673828125	1028.413452148438	928.5975952148438	-600.48486328125	1177.967041015625	731.001953125	-437.306396484375	1132.067626953125	930.3831176757812	-467.4899291992188	1379.311157226562	884.960205078125	-564.54833984375	1297.564331054688	767.6283569335938	-385.0884704589844	1234.489501953125	882.7940673828125	-532.8756713867188	1345.9453125	965.5008544921875	-627.7373657226562	1359.514404296875	934.5558471679688	-651.4278564453125	1254.048217773438	1016.217468261719	-667.5485229492188	1063.130004882812	1062.889282226562	-584.7457885742188	1043.282104492188	1050.581909179688	-694.4225463867188	828.9995727539062	1018.36962890625	-699.5606079101562	836.0757446289062	1101.7197265625	-681.0413208007812	959.7568969726562	1084.757934570312	-697.5715942382812	749.9813842773438	1106.569458007812	-712.7510986328125	735.301025390625	1046.04638671875	-385.3234558105469	1355.860595703125	740.092041015625	-328.1537170410156	1291.909545898438	712.927734375	-292.0763854980469	1032.26806640625	669.9620971679688	-344.5516357421875	1012.797973632812	748.533935546875	-478.655517578125	941.9225463867188	541.9296875	-422.0386352539062	907.88232421875	509.3759765625	-318.326171875	990.2857055664062	622.8369140625	-563.9161376953125	819.8862915039062	450.705078125	-468.8070068359375	847.338623046875	464.3651733398438	-422.5612487792969	1557.130737304688	806.1162719726562	-617.4215698242188	1570.37451171875	769.4844970703125	-511.8381958007812	1567.234375	706.6016235351562	-551.7392578125	1558.187133789062	902.9791259765625	-654.0034790039062	934.9779663085938	979.6661376953125	-379.2829895019531	923.3960571289062	749.191162109375	-506.341552734375	931.254150390625	679.0353393554688	-693.7413330078125	940.8077392578125	864.1099243164062	-802.8121948242188	486.481689453125	819.4503173828125	-763.48046875	607.2157592773438	874.9249267578125	-875.7891235351562	37.48888778686523	740.5384521484375	-850.2369384765625	258.0457458496094	793.4263305664062	-937.1757202148438	133.4004516601562	556.5562133789062	-869.15087890625	100.8697738647461	590.759521484375	-956.115478515625	78.58371734619141	650.1383056640625	-809.3067016601562	26.22745513916016	735.9498901367188	-447.8145141601562	440.1262512207031	816.36279296875	-446.1681213378906	690.7311401367188	719.5614624023438	-391.173095703125	57.34847259521484	986.24169921875	-460.3317565917969	315.9427185058594	858.9046630859375	-577.3016967773438	39.93125915527344	949.8137817382812	-526.4812622070312	48.62439346313477	1013.304748535156	-458.4523010253906	48.0411262512207	939.5216674804688	-355.6092834472656	58.18201446533203	1071.428588867188	-680.73388671875	657.607421875	1065.54345703125	-529.7064208984375	882.9560546875	466.5288696289062	nan	nan	nan	
149	1.48	-420.8155517578125	944.9840087890625	880.9483032226562	-520.1663818359375	933.9465942382812	969.1229248046875	-459.1439208984375	1026.484252929688	922.1287231445312	-606.9617919921875	1176.17041015625	723.2174682617188	-445.5994873046875	1129.916625976562	923.3897705078125	-475.2966918945312	1377.413330078125	878.5419921875	-571.3075561523438	1295.7353515625	760.2646484375	-392.8891296386719	1232.382690429688	877.008544921875	-541.2799072265625	1343.969482421875	958.472412109375	-635.9483642578125	1357.562133789062	926.7647705078125	-659.9279174804688	1252.158813476562	1008.47216796875	-675.6143188476562	1061.33056640625	1055.5458984375	-592.6512451171875	1041.61962890625	1043.560546875	-700.428955078125	826.59716796875	1012.462463378906	-706.0944213867188	834.3303833007812	1095.7724609375	-688.5657958984375	958.0297241210938	1077.948120117188	-703.32080078125	748.3734741210938	1101.382080078125	-717.9564208984375	732.977294921875	1040.93798828125	-391.6031494140625	1353.846435546875	734.4252319335938	-334.2992553710938	1289.800659179688	707.87353515625	-297.8999328613281	1030.024780273438	665.8510131835938	-351.1430053710938	1010.708129882812	743.85205078125	-483.6280822753906	941.4436645507812	535.8775024414062	-426.8498840332031	907.0975952148438	503.6752014160156	-323.7658081054688	988.3462524414062	618.4295654296875	-569.203125	821.065673828125	442.7696228027344	-473.7802429199219	847.3687133789062	457.704833984375	-429.3171081542969	1555.26513671875	800.2291870117188	-623.8657836914062	1568.565063476562	761.7374267578125	-517.637451171875	1565.337036132812	699.9160766601562	-559.3676147460938	1556.589477539062	895.9829711914062	-663.0032958984375	933.337158203125	971.197509765625	-386.05322265625	921.376708984375	743.5098876953125	-512.3377075195312	929.272705078125	671.8214111328125	-701.6087646484375	939.4307861328125	855.0293579101562	-809.9535522460938	484.7301330566406	808.7921752929688	-771.6371459960938	605.666259765625	865.2237548828125	-882.7080688476562	36.97963333129883	724.33447265625	-857.1925659179688	256.7829284667969	779.7111206054688	-936.945068359375	134.2385711669922	539.0901489257812	-870.4119873046875	101.1515731811523	575.4577026367188	-959.5674438476562	78.85042572021484	631.5418090820312	-815.9366455078125	25.69717788696289	722.12548828125	-452.8292541503906	438.8452453613281	812.4385986328125	-451.6680603027344	688.8374633789062	714.2805786132812	-391.7488098144531	58.47393798828125	986.7127685546875	-463.98193359375	314.7493286132812	855.96240234375	-577.4087524414062	39.69912719726562	949.5088500976562	-527.1094360351562	48.94320678710938	1013.082092285156	-458.764892578125	48.36851119995117	939.6959228515625	-356.6690368652344	60.70314788818359	1072.156127929688	-685.2093505859375	655.8184204101562	1061.316528320312	-534.4133911132812	883.6539306640625	459.4913635253906	nan	nan	nan	
150	1.49	-429.0291748046875	943.265625	874.5994262695312	-529.2880859375	932.3543090820312	961.905517578125	-467.6449279785156	1024.686767578125	915.3440551757812	-613.535400390625	1174.560913085938	715.3579711914062	-453.9347229003906	1127.980712890625	916.3110961914062	-483.1451721191406	1375.658569335938	872.052001953125	-578.1689453125	1294.104614257812	752.8076171875	-400.7783508300781	1230.457641601562	871.0794677734375	-549.7090454101562	1342.117797851562	951.3670043945312	-644.1866455078125	1355.768310546875	918.9365844726562	-668.4697875976562	1250.394653320312	1000.637084960938	-683.781982421875	1059.63720703125	1048.02978515625	-600.6663208007812	1040.062377929688	1036.379638671875	-706.6654663085938	824.3944091796875	1006.24072265625	-712.8870239257812	832.6954956054688	1089.497192382812	-696.2510986328125	956.408935546875	1070.897705078125	-709.3278198242188	746.8665161132812	1095.7998046875	-723.4268188476562	730.8435668945312	1035.442749023438	-397.9919738769531	1352.002319335938	728.6639404296875	-340.5931701660156	1287.867797851562	702.7666625976562	-303.8383178710938	1027.925170898438	661.861572265625	-357.9263610839844	1008.831420898438	739.2493286132812	-488.4259643554688	940.4049682617188	529.9501953125	-431.3798522949219	905.8189086914062	498.23876953125	-329.2074890136719	986.3983154296875	614.189453125	-573.8818359375	821.19482421875	435.2050476074219	-478.2546997070312	846.6532592773438	451.4376525878906	-436.0975952148438	1553.56982421875	794.2875366210938	-630.298828125	1566.978759765625	753.9295654296875	-523.4653930664062	1563.628784179688	693.1827392578125	-567.0045166015625	1555.213745117188	888.8870849609375	-672.0083618164062	932.040771484375	962.609375	-393.0110778808594	919.4971923828125	737.5310668945312	-518.5364990234375	927.3524169921875	664.4136962890625	-709.4944458007812	938.291259765625	845.8955688476562	-816.9454956054688	483.4062194824219	797.427490234375	-779.7305908203125	604.4732666015625	854.8910522460938	-887.9156494140625	36.3637809753418	710.8784790039062	-863.2306518554688	255.5403747558594	766.83935546875	-935.2677001953125	132.8646850585938	523.8154296875	-870.205322265625	99.77066802978516	562.5336303710938	-961.3416748046875	77.77949523925781	615.4784545898438	-820.910400390625	25.36406898498535	711.1537475585938	-458.0807495117188	437.66845703125	808.3153686523438	-457.4358520507812	687.0183715820312	708.8067626953125	-392.3329467773438	59.84915924072266	987.0342407226562	-467.7318420410156	313.7034912109375	852.85009765625	-577.4618530273438	39.5099983215332	949.2247314453125	-527.721435546875	49.40154266357422	1012.794616699219	-459.1107177734375	48.71960830688477	939.7532348632812	-357.7554016113281	63.61780166625977	1072.696411132812	-690.0557861328125	654.2460327148438	1056.619384765625	-538.7005615234375	883.427001953125	452.7098999023438	nan	nan	nan	
